<?xml version="1.0" encoding="UTF-8" standalone="no"?>
<!-- Created with Inkscape (http://www.inkscape.org/) -->

<svg
   width="1600mm"
   height="600mm"
   viewBox="0 0 1600 600"
   version="1.1"
   id="svg1"
   xml:space="preserve"
   inkscape:version="1.4.2 (f4327f4, 2025-05-13)"
   sodipodi:docname="logo_principale.svg"
   xmlns:inkscape="http://www.inkscape.org/namespaces/inkscape"
   xmlns:sodipodi="http://sodipodi.sourceforge.net/DTD/sodipodi-0.dtd"
   xmlns="http://www.w3.org/2000/svg"
   xmlns:svg="http://www.w3.org/2000/svg"><sodipodi:namedview
     id="namedview1"
     pagecolor="#ffffff"
     bordercolor="#000000"
     borderopacity="0.25"
     inkscape:showpageshadow="2"
     inkscape:pageopacity="0.0"
     inkscape:pagecheckerboard="0"
     inkscape:deskcolor="#d1d1d1"
     inkscape:document-units="mm"
     inkscape:zoom="0.25417602"
     inkscape:cx="2150.0848"
     inkscape:cy="1493.0598"
     inkscape:window-width="1920"
     inkscape:window-height="1009"
     inkscape:window-x="-8"
     inkscape:window-y="-8"
     inkscape:window-maximized="1"
     inkscape:current-layer="layer1" /><defs
     id="defs1"><inkscape:path-effect
       effect="fillet_chamfer"
       id="path-effect4"
       is_visible="true"
       lpeversion="1"
       nodesatellites_param="F,0,0,1,0,0,0,1 @ F,0,0,1,0,0,0,1 @ F,0,0,1,0,0,0,1 @ F,0,0,1,0,15.391521,0,1 @ F,0,0,1,0,4.4885263,0,1 @ F,0,0,1,0,92.594131,0,1 @ F,0,0,1,0,0,0,1 @ F,0,0,1,0,0,0,1 @ F,0,0,1,0,0,0,1 @ F,0,0,1,0,0,0,1 @ F,0,0,1,0,0,0,1 | F,0,0,1,0,0,0,1 @ F,0,0,1,0,0,0,1 @ F,0,0,1,0,0,0,1 @ F,0,0,1,0,0,0,1 @ F,0,0,1,0,0,0,1 @ F,0,0,1,0,0,0,1 @ F,0,0,1,0,0,0,1"
       radius="0"
       unit="px"
       method="auto"
       mode="F"
       chamfer_steps="1"
       flexible="false"
       use_knot_distance="true"
       apply_no_radius="true"
       apply_with_radius="true"
       only_selected="false"
       hide_knots="false" /></defs><g
     inkscape:label="Calque 1"
     inkscape:groupmode="layer"
     id="layer1"
     transform="translate(-1.9933535,-3.1629879)"><text
       xml:space="preserve"
       style="font-weight:600;font-size:441.173px;font-family:Sans;-inkscape-font-specification:'Sans, Semi-Bold';text-align:start;writing-mode:lr-tb;direction:ltr;text-anchor:start;display:none;fill:#8c929e;fill-opacity:1;stroke-width:2.75734"
       x="-1.1750523"
       y="358.6889"
       id="text9"
       transform="scale(1.1232154,0.89030119)"><tspan
         sodipodi:role="line"
         id="tspan9"
         style="stroke-width:2.75734"
         x="-1.1750523"
         y="358.6889">ERSH</tspan></text><text
       xml:space="preserve"
       style="font-weight:600;font-size:345.349px;font-family:Sans;-inkscape-font-specification:'Sans, Semi-Bold';text-align:start;writing-mode:lr-tb;direction:ltr;text-anchor:start;display:inline;fill:#156190;fill-opacity:1;stroke-width:2.59012"
       x="27.20599"
       y="491.54794"
       id="text6-52"><tspan
         sodipodi:role="line"
         id="tspan6-7"
         style="fill:#156190;fill-opacity:1;stroke-width:2.59012"
         x="27.20599"
         y="491.54794">.</tspan></text><text
       xml:space="preserve"
       style="font-weight:600;font-size:222.605px;font-family:Sans;-inkscape-font-specification:'Sans, Semi-Bold';text-align:start;writing-mode:lr-tb;direction:ltr;text-anchor:start;fill:#8c929e;fill-opacity:1;stroke-width:1.66954"
       x="1254.9559"
       y="376.31754"
       id="text5"><tspan
         sodipodi:role="line"
         id="tspan4"
         style="fill:#8c929e;fill-opacity:1;stroke-width:1.66954"
         x="1254.9559"
         y="376.31754">.fr</tspan></text><text
       xml:space="preserve"
       style="font-weight:600;font-size:345.349px;font-family:Sans;-inkscape-font-specification:'Sans, Semi-Bold';text-align:start;writing-mode:lr-tb;direction:ltr;text-anchor:start;fill:#fd726f;fill-opacity:1;stroke-width:2.59012"
       x="274.02786"
       y="491.54794"
       id="text6"><tspan
         sodipodi:role="line"
         id="tspan6"
         style="fill:#fd726f;fill-opacity:1;stroke-width:2.59012"
         x="274.02786"
         y="491.54794">.</tspan></text><text
       xml:space="preserve"
       style="font-weight:600;font-size:345.349px;font-family:Sans;-inkscape-font-specification:'Sans, Semi-Bold';text-align:start;writing-mode:lr-tb;direction:ltr;text-anchor:start;fill:#fec048;fill-opacity:1;stroke-width:2.59012"
       x="397.43881"
       y="491.54794"
       id="text6-3"><tspan
         sodipodi:role="line"
         id="tspan6-2"
         style="fill:#fec048;fill-opacity:1;stroke-width:2.59012"
         x="397.43881"
         y="491.54794">.</tspan></text><text
       xml:space="preserve"
       style="font-weight:600;font-size:345.349px;font-family:Sans;-inkscape-font-specification:'Sans, Semi-Bold';text-align:start;writing-mode:lr-tb;direction:ltr;text-anchor:start;fill:#7abd63;fill-opacity:1;stroke-width:2.59012"
       x="150.61693"
       y="491.54794"
       id="text6-5"><tspan
         sodipodi:role="line"
         id="tspan6-5"
         style="fill:#7abd63;fill-opacity:1;stroke-width:2.59012"
         x="150.61693"
         y="491.54794">.</tspan></text><text
       xml:space="preserve"
       style="font-weight:600;font-size:42.3333px;font-family:Sans;-inkscape-font-specification:'Sans, Semi-Bold';text-align:start;writing-mode:lr-tb;direction:ltr;text-anchor:start;fill:#8c929e;fill-opacity:1;stroke-width:0.264583"
       x="600.388"
       y="470.79169"
       id="text7"><tspan
         sodipodi:role="line"
         id="tspan7"
         style="font-size:42.3333px;fill:#8c929e;fill-opacity:1;stroke-width:0.264583"
         x="600.388"
         y="470.79169">Enseignants référents pour la scolarisation</tspan><tspan
         sodipodi:role="line"
         style="font-size:42.3333px;fill:#8c929e;fill-opacity:1;stroke-width:0.264583"
         x="600.388"
         y="523.70831"
         id="tspan8">des élèves en situation de handicap</tspan></text><path
       style="font-weight:bold;font-size:446.049px;font-family:'Liberation Sans';-inkscape-font-specification:'Liberation Sans, Bold';fill:#0f5488;stroke-width:0.669074"
       d="M 1162.4838,374.85513 V 243.30552 H 1028.7562 V 374.85513 H 964.50599 V 67.97864 h 64.25021 v 122.18432 h 133.7276 V 67.97864 h 64.2502 v 306.87649 z"
       id="path14" /><path
       style="font-weight:bold;font-size:446.049px;font-family:'Liberation Sans';-inkscape-font-specification:'Liberation Sans, Bold';fill:#0f5488;stroke-width:0.669074"
       d="m 917.24399,286.4294 q 0,45.08406 -33.54079,69.04177 -33.323,23.73991 -98.00882,23.73991 -59.02308,0 -92.56388,-20.90855 -33.54079,-20.90854 -43.12388,-63.37903 l 62.07225,-10.23648 q 6.31613,24.39331 24.61111,35.50097 18.29497,10.88987 50.74678,10.88987 67.29939,0 67.29939,-40.9459 0,-13.06785 -7.84071,-21.56194 -7.6229,-8.4941 -21.77973,-14.15683 -13.93903,-5.66273 -53.79595,-13.72124 -34.41199,-8.0585 -47.91542,-12.85004 -13.50344,-5.00934 -24.39331,-11.54326 -10.88987,-6.75172 -18.51278,-16.11701 -7.6229,-9.36528 -11.97885,-21.99753 -4.13815,-12.63225 -4.13815,-28.96705 0,-41.5993 31.14502,-63.596833 31.36282,-22.215331 91.0393,-22.215331 57.06291,0 85.59437,17.859384 28.74925,17.859384 37.02555,59.02309 l -62.29005,8.49409 q -4.79154,-19.81956 -19.60176,-29.83824 -14.59242,-10.01867 -42.03489,-10.01867 -58.3697,0 -58.3697,36.58995 0,11.97886 6.09833,19.60177 6.31612,7.6229 18.51278,13.06784 12.19665,5.22714 49.44,13.28564 44.21287,9.36529 63.16124,17.42379 19.16616,7.8407 30.27383,18.51277 11.10767,10.45428 16.9882,25.2645 5.88052,14.59242 5.88052,33.75859 z"
       id="path13" /><path
       style="font-weight:bold;font-size:446.049px;font-family:'Liberation Sans';-inkscape-font-specification:'Liberation Sans, Bold';fill:#7bbe63;fill-opacity:1;stroke-width:0.669074"
       d="M 554.13891,347.27008 C 516.81382,321.2123 484.48059,258.33354 484.48059,258.33354 H 409.1227 V 374.85513 H 344.87247 V 67.97864 h 153.32935 c 36.58996,0 64.83102,7.913305 84.72318,23.739914 19.89216,15.681406 29.83824,38.259736 29.83824,67.734986 0,21.48934 -6.09833,40.07471 -18.29498,55.75612 -12.19665,15.53621 -28.67666,25.77269 -49.44001,30.70943 0,0 51.81186,69.02664 86.71511,93.12931 27.54192,19.01926 60.5109,29.75587 92.96078,37.95921 62.46299,15.79067 191.12628,8.25698 191.12628,8.25698 0,0 -33.49109,8.11604 -74.04595,12.36924 -40.55485,4.2532 -88.17348,4.64355 -110.18287,3.76541 -33.01703,-1.31733 -70.29662,-2.61659 -98.88057,-11.19017 -25.07506,-7.52111 -57.11683,-27.95342 -78.58212,-42.93899 z M 548.07742,162.0671 c 0,-29.47524 -18.87577,-44.21286 -56.62732,-44.21286 h -82.3274 v 90.6037 h 84.06978 c 18.00458,0 31.65322,-4.06555 40.94591,-12.19665 9.29269,-8.1311 13.93903,-19.52916 13.93903,-34.19419 z"
       id="path12"
       sodipodi:nodetypes="scccccscsccsscssssssccsss" /><path
       style="font-weight:bold;font-size:446.049px;font-family:'Liberation Sans';-inkscape-font-specification:'Liberation Sans, Bold';fill:#0f5488;stroke-width:0.669074"
       d="M 47.361273,374.85513 V 67.97864 H 288.68076 v 49.6578 H 111.6115 v 77.10027 h 163.78362 v 49.6578 H 111.6115 v 80.80282 h 185.99895 v 49.6578 z"
       id="text12" /></g></svg>
